<svg width="1240" height="280" viewBox="0 0 1240 280" fill="none" xmlns="http://www.w3.org/2000/svg" role="img" aria-labelledby="title desc">
  <title id="title">Ghosted heading art</title>
  <desc id="desc">Main heading art for Ghosted using pixel-style lettering and the product color palette.</desc>
  <defs>
    <symbol id="letter-g" viewBox="0 0 90 126">
      <g fill="currentColor">
        <rect x="0" y="0" width="18" height="18"/><rect x="18" y="0" width="18" height="18"/><rect x="36" y="0" width="18" height="18"/><rect x="54" y="0" width="18" height="18"/><rect x="72" y="0" width="18" height="18"/>
        <rect x="0" y="18" width="18" height="18"/>
        <rect x="0" y="36" width="18" height="18"/>
        <rect x="0" y="54" width="18" height="18"/><rect x="36" y="54" width="18" height="18"/><rect x="54" y="54" width="18" height="18"/><rect x="72" y="54" width="18" height="18"/>
        <rect x="0" y="72" width="18" height="18"/><rect x="72" y="72" width="18" height="18"/>
        <rect x="0" y="90" width="18" height="18"/><rect x="72" y="90" width="18" height="18"/>
        <rect x="0" y="108" width="18" height="18"/><rect x="18" y="108" width="18" height="18"/><rect x="36" y="108" width="18" height="18"/><rect x="54" y="108" width="18" height="18"/><rect x="72" y="108" width="18" height="18"/>
      </g>
    </symbol>
    <symbol id="letter-h" viewBox="0 0 90 126">
      <g fill="currentColor">
        <rect x="0" y="0" width="18" height="18"/><rect x="72" y="0" width="18" height="18"/>
        <rect x="0" y="18" width="18" height="18"/><rect x="72" y="18" width="18" height="18"/>
        <rect x="0" y="36" width="18" height="18"/><rect x="72" y="36" width="18" height="18"/>
        <rect x="0" y="54" width="18" height="18"/><rect x="18" y="54" width="18" height="18"/><rect x="36" y="54" width="18" height="18"/><rect x="54" y="54" width="18" height="18"/><rect x="72" y="54" width="18" height="18"/>
        <rect x="0" y="72" width="18" height="18"/><rect x="72" y="72" width="18" height="18"/>
        <rect x="0" y="90" width="18" height="18"/><rect x="72" y="90" width="18" height="18"/>
        <rect x="0" y="108" width="18" height="18"/><rect x="72" y="108" width="18" height="18"/>
      </g>
    </symbol>
    <symbol id="letter-o" viewBox="0 0 90 126">
      <g fill="currentColor">
        <rect x="18" y="0" width="18" height="18"/><rect x="36" y="0" width="18" height="18"/><rect x="54" y="0" width="18" height="18"/>
        <rect x="0" y="18" width="18" height="18"/><rect x="72" y="18" width="18" height="18"/>
        <rect x="0" y="36" width="18" height="18"/><rect x="72" y="36" width="18" height="18"/>
        <rect x="0" y="54" width="18" height="18"/><rect x="72" y="54" width="18" height="18"/>
        <rect x="0" y="72" width="18" height="18"/><rect x="72" y="72" width="18" height="18"/>
        <rect x="0" y="90" width="18" height="18"/><rect x="72" y="90" width="18" height="18"/>
        <rect x="18" y="108" width="18" height="18"/><rect x="36" y="108" width="18" height="18"/><rect x="54" y="108" width="18" height="18"/>
      </g>
    </symbol>
    <symbol id="letter-s" viewBox="0 0 90 126">
      <g fill="currentColor">
        <rect x="0" y="0" width="18" height="18"/><rect x="18" y="0" width="18" height="18"/><rect x="36" y="0" width="18" height="18"/><rect x="54" y="0" width="18" height="18"/><rect x="72" y="0" width="18" height="18"/>
        <rect x="0" y="18" width="18" height="18"/>
        <rect x="0" y="36" width="18" height="18"/>
        <rect x="0" y="54" width="18" height="18"/><rect x="18" y="54" width="18" height="18"/><rect x="36" y="54" width="18" height="18"/><rect x="54" y="54" width="18" height="18"/><rect x="72" y="54" width="18" height="18"/>
        <rect x="72" y="72" width="18" height="18"/>
        <rect x="72" y="90" width="18" height="18"/>
        <rect x="0" y="108" width="18" height="18"/><rect x="18" y="108" width="18" height="18"/><rect x="36" y="108" width="18" height="18"/><rect x="54" y="108" width="18" height="18"/><rect x="72" y="108" width="18" height="18"/>
      </g>
    </symbol>
    <symbol id="letter-t" viewBox="0 0 90 126">
      <g fill="currentColor">
        <rect x="0" y="0" width="18" height="18"/><rect x="18" y="0" width="18" height="18"/><rect x="36" y="0" width="18" height="18"/><rect x="54" y="0" width="18" height="18"/><rect x="72" y="0" width="18" height="18"/>
        <rect x="36" y="18" width="18" height="18"/>
        <rect x="36" y="36" width="18" height="18"/>
        <rect x="36" y="54" width="18" height="18"/>
        <rect x="36" y="72" width="18" height="18"/>
        <rect x="36" y="90" width="18" height="18"/>
        <rect x="36" y="108" width="18" height="18"/>
      </g>
    </symbol>
    <symbol id="letter-e" viewBox="0 0 90 126">
      <g fill="currentColor">
        <rect x="0" y="0" width="18" height="18"/><rect x="18" y="0" width="18" height="18"/><rect x="36" y="0" width="18" height="18"/><rect x="54" y="0" width="18" height="18"/><rect x="72" y="0" width="18" height="18"/>
        <rect x="0" y="18" width="18" height="18"/>
        <rect x="0" y="36" width="18" height="18"/>
        <rect x="0" y="54" width="18" height="18"/><rect x="18" y="54" width="18" height="18"/><rect x="36" y="54" width="18" height="18"/><rect x="54" y="54" width="18" height="18"/>
        <rect x="0" y="72" width="18" height="18"/>
        <rect x="0" y="90" width="18" height="18"/>
        <rect x="0" y="108" width="18" height="18"/><rect x="18" y="108" width="18" height="18"/><rect x="36" y="108" width="18" height="18"/><rect x="54" y="108" width="18" height="18"/><rect x="72" y="108" width="18" height="18"/>
      </g>
    </symbol>
    <symbol id="letter-d" viewBox="0 0 90 126">
      <g fill="currentColor">
        <rect x="0" y="0" width="18" height="18"/><rect x="18" y="0" width="18" height="18"/><rect x="36" y="0" width="18" height="18"/><rect x="54" y="0" width="18" height="18"/>
        <rect x="0" y="18" width="18" height="18"/><rect x="72" y="18" width="18" height="18"/>
        <rect x="0" y="36" width="18" height="18"/><rect x="72" y="36" width="18" height="18"/>
        <rect x="0" y="54" width="18" height="18"/><rect x="72" y="54" width="18" height="18"/>
        <rect x="0" y="72" width="18" height="18"/><rect x="72" y="72" width="18" height="18"/>
        <rect x="0" y="90" width="18" height="18"/><rect x="72" y="90" width="18" height="18"/>
        <rect x="0" y="108" width="18" height="18"/><rect x="18" y="108" width="18" height="18"/><rect x="36" y="108" width="18" height="18"/><rect x="54" y="108" width="18" height="18"/>
      </g>
    </symbol>
    <g id="word-ghosted">
      <use href="#letter-g" x="0"/>
      <use href="#letter-h" x="108"/>
      <use href="#letter-o" x="216"/>
      <use href="#letter-s" x="324"/>
      <use href="#letter-t" x="432"/>
      <use href="#letter-e" x="540"/>
      <use href="#letter-d" x="648"/>
    </g>
  </defs>
  <rect width="1240" height="280" fill="transparent"/>
  <rect x="16" y="22" width="1208" height="236" fill="#faf9f7" stroke="#1a1a1a" stroke-width="4"/>
  <rect x="52" y="42" width="246" height="22" fill="#c73e1d"/>
  <text x="68" y="57" fill="#ffffff" font-family="Courier New, monospace" font-size="12" font-weight="700" letter-spacing="3">VISA-AWARE JOB INTELLIGENCE</text>
  <g transform="translate(244 92)" style="color:#d4a373">
    <use href="#word-ghosted"/>
  </g>
  <g transform="translate(234 82)" style="color:#c73e1d">
    <use href="#word-ghosted"/>
  </g>
  <g transform="translate(224 72)" style="color:#1a1a1a">
    <use href="#word-ghosted"/>
  </g>
</svg>
