<svg width="64" height="64" viewBox="0 0 64 64" fill="none" xmlns="http://www.w3.org/2000/svg">
  <rect x="6" y="8" width="50" height="50" fill="#d4a373"/>
  <rect x="4" y="4" width="50" height="50" fill="#faf9f7" stroke="#1a1a1a" stroke-width="4"/>
  <rect x="42" y="10" width="10" height="10" fill="#2d6a4f" stroke="#1a1a1a" stroke-width="2"/>
  <g fill="#c73e1d">
    <rect x="16" y="16" width="6" height="6"/><rect x="22" y="16" width="6" height="6"/><rect x="28" y="16" width="6" height="6"/><rect x="34" y="16" width="6" height="6"/><rect x="40" y="16" width="6" height="6"/>
    <rect x="16" y="22" width="6" height="6"/>
    <rect x="16" y="28" width="6" height="6"/>
    <rect x="16" y="34" width="6" height="6"/><rect x="28" y="34" width="6" height="6"/><rect x="34" y="34" width="6" height="6"/><rect x="40" y="34" width="6" height="6"/>
    <rect x="16" y="40" width="6" height="6"/><rect x="40" y="40" width="6" height="6"/>
    <rect x="16" y="46" width="6" height="6"/><rect x="40" y="46" width="6" height="6"/>
    <rect x="16" y="52" width="6" height="6"/><rect x="22" y="52" width="6" height="6"/><rect x="28" y="52" width="6" height="6"/><rect x="34" y="52" width="6" height="6"/><rect x="40" y="52" width="6" height="6"/>
  </g>
</svg>
